<mxfile host="app.diagrams.net" agent="Mozilla/5.0 (Macintosh; Intel Mac OS X 10_15_7) AppleWebKit/537.36 (KHTML, like Gecko) Chrome/127.0.0.0 Safari/537.36" version="24.7.16">
  <diagram id="07fea595-8f29-1299-0266-81d95cde20df" name="Page-1">
    <mxGraphModel dx="2120" dy="1531" grid="1" gridSize="48" guides="1" tooltips="1" connect="1" arrows="1" fold="1" page="1" pageScale="1" pageWidth="827" pageHeight="1169" background="#4E6B3D" math="0" shadow="0">
      <root>
        <mxCell id="0" />
        <mxCell id="1" parent="0" />
        <mxCell id="x-ANHdW1QQ-1PhI1n00a-327" value="&lt;h1 style=&quot;margin-bottom: 21.44px;&quot;&gt;&lt;font style=&quot;font-size: 30px;&quot;&gt;&lt;b style=&quot;&quot;&gt;EL TUCANO RESORT&lt;/b&gt;&lt;/font&gt;&lt;/h1&gt;" style="html=1;shadow=0;dashed=0;shape=mxgraph.bootstrap.rrect;rSize=5;strokeColor=#F8F9FA;strokeWidth=2;fillColor=none;fontColor=#F8F9FA;whiteSpace=wrap;align=center;verticalAlign=middle;spacingLeft=0;fontStyle=0;fontSize=16;spacing=5;rounded=1;" vertex="1" parent="1">
          <mxGeometry x="48" y="38" width="437.94" height="78" as="geometry" />
        </mxCell>
        <mxCell id="x-ANHdW1QQ-1PhI1n00a-328" value="&lt;div style=&quot;text-align: center;&quot;&gt;&lt;span style=&quot;background-color: initial;&quot;&gt;&lt;font face=&quot;Helvetica&quot; size=&quot;1&quot; style=&quot;&quot; color=&quot;#ffffff&quot;&gt;&lt;b style=&quot;font-size: 12px;&quot;&gt;https://eltucnaoresort.com&lt;/b&gt;&lt;/font&gt;&lt;/span&gt;&lt;/div&gt;" style="text;whiteSpace=wrap;html=1;" vertex="1" parent="1">
          <mxGeometry x="48" y="116" width="153" height="28" as="geometry" />
        </mxCell>
        <mxCell id="170" value="&lt;font style=&quot;font-size: 11px;&quot;&gt;Inside Sales Rep&lt;/font&gt;" style="swimlane;whiteSpace=wrap;swimlaneFillColor=#BAC8D3;fontFamily=Courier New;html=1;opacity=50;rounded=1;shadow=1;strokeWidth=2;labelBackgroundColor=none;labelBorderColor=none;textShadow=1;fontStyle=0;align=center;fontSize=11;shadowOpacity=29;shadowColor=#FFF2CC;strokeColor=#ffffff;" parent="1" vertex="1">
          <mxGeometry x="34" y="228.11846153846153" width="225.96999999999997" height="915.8815384615384" as="geometry">
            <mxRectangle x="20" y="20" width="80" height="23" as="alternateBounds" />
          </mxGeometry>
        </mxCell>
        <mxCell id="171" value="Customer Management" style="whiteSpace=wrap;shadow=1;fontFamily=Courier New;fontStyle=0;html=1;fontSize=11;spacing=6;verticalAlign=middle;rounded=1;strokeWidth=2;labelBackgroundColor=none;labelBorderColor=none;textShadow=1;align=center;shadowOpacity=29;shadowColor=#FFF2CC;strokeColor=#ffffff;" parent="170" vertex="1">
          <mxGeometry x="28.246249999999996" y="84.73846153846154" width="169.4775" height="84.73846153846154" as="geometry" />
        </mxCell>
        <mxCell id="172" value="Credit Management" style="whiteSpace=wrap;shadow=1;fontFamily=Courier New;fontStyle=0;html=1;fontSize=11;spacing=6;verticalAlign=middle;rounded=1;strokeWidth=2;labelBackgroundColor=none;labelBorderColor=none;textShadow=1;align=center;shadowOpacity=29;shadowColor=#FFF2CC;strokeColor=#ffffff;" parent="170" vertex="1">
          <mxGeometry x="28.246249999999996" y="529.6153846153845" width="169.4775" height="84.73846153846154" as="geometry" />
        </mxCell>
        <mxCell id="173" value="Price Management" style="whiteSpace=wrap;shadow=1;fontFamily=Courier New;fontStyle=0;html=1;fontSize=11;spacing=6;verticalAlign=middle;rounded=1;strokeWidth=2;labelBackgroundColor=none;labelBorderColor=none;textShadow=1;align=center;shadowOpacity=29;shadowColor=#FFF2CC;strokeColor=#ffffff;" parent="170" vertex="1">
          <mxGeometry x="28.246249999999996" y="684.9692307692308" width="169.4775" height="84.73846153846154" as="geometry" />
        </mxCell>
        <mxCell id="174" value="" style="edgeStyle=segmentEdgeStyle;strokeWidth=2;html=1;endArrow=block;endFill=1;rounded=1;shadow=1;labelBackgroundColor=none;labelBorderColor=none;textShadow=1;fontStyle=0;align=center;fontSize=11;fontFamily=Courier New;fontColor=default;shadowOpacity=29;shadowColor=#FFF2CC;strokeColor=#ffffff;" parent="170" source="172" target="173" edge="1">
          <mxGeometry width="100" height="100" relative="1" as="geometry">
            <mxPoint x="240.093125" y="561.3923076923077" as="sourcePoint" />
            <mxPoint x="381.324375" y="667.3153846153846" as="targetPoint" />
          </mxGeometry>
        </mxCell>
        <mxCell id="175" value="" style="edgeStyle=segmentEdgeStyle;strokeWidth=2;html=1;endArrow=block;endFill=1;rounded=1;shadow=1;labelBackgroundColor=none;labelBorderColor=none;textShadow=1;fontStyle=0;align=center;fontSize=11;fontFamily=Courier New;fontColor=default;shadowOpacity=29;shadowColor=#FFF2CC;strokeColor=#ffffff;" parent="170" source="171" target="172" edge="1">
          <mxGeometry width="100" height="100" relative="1" as="geometry">
            <mxPoint x="225.96999999999997" y="155.35384615384615" as="sourcePoint" />
            <mxPoint x="367.20124999999996" y="261.2769230769231" as="targetPoint" />
          </mxGeometry>
        </mxCell>
        <mxCell id="176" value="&lt;font style=&quot;font-size: 11px;&quot;&gt;Inside Sales Manager&lt;/font&gt;" style="swimlane;whiteSpace=wrap;swimlaneFillColor=#BAC8D3;fontFamily=Courier New;html=1;opacity=25;rounded=1;shadow=1;strokeWidth=2;labelBackgroundColor=none;labelBorderColor=none;textShadow=1;fontStyle=0;align=center;fontSize=11;shadowOpacity=29;shadowColor=#FFF2CC;strokeColor=#ffffff;" parent="1" vertex="1">
          <mxGeometry x="1163.85" y="226" width="225.96999999999997" height="918" as="geometry">
            <mxRectangle x="20" y="20" width="80" height="23" as="alternateBounds" />
          </mxGeometry>
        </mxCell>
        <mxCell id="177" value="Sales Contract" style="shape=document;whiteSpace=wrap;verticalAlign=middle;shadow=1;fontFamily=Courier New;fontStyle=0;html=1;fontSize=11;spacing=6;spacingBottom=22;rounded=1;strokeWidth=2;labelBackgroundColor=none;labelBorderColor=none;textShadow=1;align=center;shadowOpacity=29;shadowColor=#FFF2CC;strokeColor=#ffffff;" parent="176" vertex="1">
          <mxGeometry x="28.246249999999996" y="70.61538461538461" width="169.4775" height="112.98461538461538" as="geometry" />
        </mxCell>
        <mxCell id="178" value="Bills" style="shape=document;whiteSpace=wrap;verticalAlign=middle;shadow=1;fontFamily=Courier New;fontStyle=0;html=1;fontSize=11;spacing=6;spacingBottom=22;rounded=1;strokeWidth=2;labelBackgroundColor=none;labelBorderColor=none;textShadow=1;align=center;shadowOpacity=29;shadowColor=#FFF2CC;strokeColor=#ffffff;" parent="176" vertex="1">
          <mxGeometry x="28.246249999999996" y="748.5230769230769" width="169.4775" height="112.98461538461538" as="geometry" />
        </mxCell>
        <mxCell id="179" value="Cost Allocation" style="whiteSpace=wrap;shadow=1;fontFamily=Courier New;fontStyle=0;html=1;fontSize=11;spacing=6;verticalAlign=middle;rounded=1;strokeWidth=2;labelBackgroundColor=none;labelBorderColor=none;textShadow=1;align=center;shadowOpacity=29;shadowColor=#FFF2CC;strokeColor=#ffffff;" parent="176" vertex="1">
          <mxGeometry x="28.246249999999996" y="430.7538461538461" width="169.4775" height="84.73846153846154" as="geometry" />
        </mxCell>
        <mxCell id="180" value="&lt;font style=&quot;font-size: 11px;&quot;&gt;VP Sales&lt;/font&gt;" style="swimlane;whiteSpace=wrap;swimlaneFillColor=#BAC8D3;fontFamily=Courier New;html=1;opacity=50;rounded=1;shadow=1;strokeWidth=2;labelBackgroundColor=none;labelBorderColor=none;textShadow=1;fontStyle=0;align=center;fontSize=11;shadowOpacity=29;shadowColor=#FFF2CC;strokeColor=#ffffff;" parent="1" vertex="1">
          <mxGeometry x="937.8799999999999" y="226" width="225.96999999999997" height="918" as="geometry">
            <mxRectangle x="20" y="20" width="80" height="23" as="alternateBounds" />
          </mxGeometry>
        </mxCell>
        <mxCell id="181" value="Outbound Accounting" style="whiteSpace=wrap;shadow=1;fontFamily=Courier New;fontStyle=0;html=1;fontSize=11;spacing=6;verticalAlign=middle;rounded=1;strokeWidth=2;labelBackgroundColor=none;labelBorderColor=none;textShadow=1;align=center;shadowOpacity=29;shadowColor=#FFF2CC;strokeColor=#ffffff;" parent="180" vertex="1">
          <mxGeometry x="28.246249999999996" y="225.96923076923076" width="169.4775" height="84.73846153846154" as="geometry" />
        </mxCell>
        <mxCell id="182" value="Account Processing" style="whiteSpace=wrap;shadow=1;fontFamily=Courier New;fontStyle=0;html=1;fontSize=11;spacing=6;verticalAlign=middle;rounded=1;strokeWidth=2;labelBackgroundColor=none;labelBorderColor=none;textShadow=1;align=center;shadowOpacity=29;shadowColor=#FFF2CC;strokeColor=#ffffff;" parent="180" vertex="1">
          <mxGeometry x="28.246249999999996" y="593.1692307692307" width="169.4775" height="84.73846153846154" as="geometry" />
        </mxCell>
        <mxCell id="183" value="&lt;font style=&quot;font-size: 11px;&quot;&gt;Sales Admin&lt;/font&gt;" style="swimlane;whiteSpace=wrap;swimlaneFillColor=#BAC8D3;fontFamily=Courier New;html=1;opacity=25;rounded=1;shadow=1;strokeWidth=2;labelBackgroundColor=none;labelBorderColor=none;textShadow=1;fontStyle=0;align=center;fontSize=11;shadowOpacity=29;shadowColor=#FFF2CC;strokeColor=#ffffff;" parent="1" vertex="1">
          <mxGeometry x="259.96999999999997" y="226" width="225.96999999999997" height="918" as="geometry">
            <mxRectangle x="20" y="20" width="80" height="23" as="alternateBounds" />
          </mxGeometry>
        </mxCell>
        <mxCell id="184" value="Material Requirements Planning Operation" style="whiteSpace=wrap;shadow=1;fontFamily=Courier New;fontStyle=0;html=1;fontSize=11;spacing=6;verticalAlign=middle;rounded=1;strokeWidth=2;labelBackgroundColor=none;labelBorderColor=none;textShadow=1;align=center;shadowOpacity=29;shadowColor=#FFF2CC;strokeColor=#ffffff;" parent="183" vertex="1">
          <mxGeometry x="28.246249999999996" y="233.03076923076924" width="169.4775" height="84.73846153846154" as="geometry" />
        </mxCell>
        <mxCell id="185" value="&lt;font style=&quot;font-size: 11px;&quot;&gt;Facilities Procurement&lt;br style=&quot;font-size: 11px;&quot;&gt;Application&lt;/font&gt;&lt;br style=&quot;font-size: 11px;&quot;&gt; " style="shape=document;whiteSpace=wrap;verticalAlign=middle;shadow=1;fontFamily=Courier New;fontStyle=0;html=1;fontSize=11;spacing=6;spacingBottom=22;rounded=1;strokeWidth=2;labelBackgroundColor=none;labelBorderColor=none;textShadow=1;align=center;shadowOpacity=29;shadowColor=#FFF2CC;strokeColor=#ffffff;" parent="183" vertex="1">
          <mxGeometry x="28.246249999999996" y="374.26153846153846" width="169.4775" height="112.98461538461538" as="geometry" />
        </mxCell>
        <mxCell id="186" value="" style="edgeStyle=segmentEdgeStyle;strokeWidth=2;html=1;endArrow=block;endFill=1;rounded=1;shadow=1;labelBackgroundColor=none;labelBorderColor=none;textShadow=1;fontStyle=0;align=center;fontSize=11;fontFamily=Courier New;fontColor=default;shadowOpacity=29;shadowColor=#FFF2CC;strokeColor=#ffffff;" parent="183" source="184" target="185" edge="1">
          <mxGeometry width="100" height="100" relative="1" as="geometry">
            <mxPoint x="-14.123124999999998" y="141.23076923076923" as="sourcePoint" />
            <mxPoint x="127.10812499999999" y="247.15384615384613" as="targetPoint" />
          </mxGeometry>
        </mxCell>
        <mxCell id="187" value="&lt;font style=&quot;font-size: 11px;&quot;&gt;Sales Representative&lt;/font&gt;" style="swimlane;whiteSpace=wrap;swimlaneFillColor=#BAC8D3;fontFamily=Courier New;html=1;opacity=50;rounded=1;shadow=1;strokeWidth=2;labelBackgroundColor=none;labelBorderColor=none;textShadow=1;fontStyle=0;align=center;fontSize=11;shadowOpacity=29;shadowColor=#FFF2CC;strokeColor=#ffffff;" parent="1" vertex="1">
          <mxGeometry x="485.93999999999994" y="226" width="225.96999999999997" height="918" as="geometry">
            <mxRectangle x="20" y="20" width="80" height="23" as="alternateBounds" />
          </mxGeometry>
        </mxCell>
        <mxCell id="188" value="Product Quotations" style="shape=document;whiteSpace=wrap;verticalAlign=middle;shadow=1;fontFamily=Courier New;fontStyle=0;html=1;fontSize=11;spacing=6;spacingBottom=22;rounded=1;strokeWidth=2;labelBackgroundColor=none;labelBorderColor=none;textShadow=1;align=center;shadowOpacity=29;shadowColor=#FFF2CC;strokeColor=#ffffff;" parent="187" vertex="1">
          <mxGeometry x="28.246249999999996" y="70.61538461538461" width="169.4775" height="112.98461538461538" as="geometry" />
        </mxCell>
        <mxCell id="189" value="Orders" style="shape=document;whiteSpace=wrap;verticalAlign=middle;shadow=1;fontFamily=Courier New;fontStyle=0;html=1;fontSize=11;spacing=6;spacingBottom=22;rounded=1;strokeWidth=2;labelBackgroundColor=none;labelBorderColor=none;textShadow=1;align=center;shadowOpacity=29;shadowColor=#FFF2CC;strokeColor=#ffffff;" parent="187" vertex="1">
          <mxGeometry x="28.246249999999996" y="317.7692307692308" width="169.4775" height="112.98461538461538" as="geometry" />
        </mxCell>
        <mxCell id="190" value="Product Delivery Notification" style="shape=document;whiteSpace=wrap;shadow=1;fontFamily=Courier New;fontStyle=0;html=1;fontSize=11;verticalAlign=middle;spacing=6;spacingBottom=22;rounded=1;strokeWidth=2;labelBackgroundColor=none;labelBorderColor=none;textShadow=1;align=center;shadowOpacity=29;shadowColor=#FFF2CC;strokeColor=#ffffff;" parent="187" vertex="1">
          <mxGeometry x="28.246249999999996" y="564.9230769230769" width="169.4775" height="112.98461538461538" as="geometry" />
        </mxCell>
        <mxCell id="191" value="Invoice" style="shape=document;whiteSpace=wrap;verticalAlign=middle;shadow=1;fontFamily=Courier New;fontStyle=0;html=1;fontSize=11;spacing=6;spacingBottom=22;rounded=1;strokeWidth=2;labelBackgroundColor=none;labelBorderColor=none;textShadow=1;align=center;shadowOpacity=29;shadowColor=#FFF2CC;strokeColor=#ffffff;" parent="187" vertex="1">
          <mxGeometry x="28.246249999999996" y="734.4" width="169.4775" height="112.98461538461538" as="geometry" />
        </mxCell>
        <mxCell id="192" value="" style="edgeStyle=segmentEdgeStyle;strokeWidth=2;html=1;endArrow=block;endFill=1;rounded=1;shadow=1;labelBackgroundColor=none;labelBorderColor=none;textShadow=1;fontStyle=0;align=center;fontSize=11;fontFamily=Courier New;fontColor=default;shadowOpacity=29;shadowColor=#FFF2CC;strokeColor=#ffffff;" parent="187" source="190" target="191" edge="1">
          <mxGeometry width="100" height="100" relative="1" as="geometry">
            <mxPoint x="-112.98499999999999" y="529.6153846153845" as="sourcePoint" />
            <mxPoint x="84.73875" y="692.0307692307691" as="targetPoint" />
            <Array as="points">
              <mxPoint x="74.85256249999999" y="707.5661538461538" />
              <mxPoint x="74.85256249999999" y="707.5661538461538" />
            </Array>
          </mxGeometry>
        </mxCell>
        <mxCell id="193" value="&lt;font style=&quot;font-size: 11px;&quot;&gt;Sales Manager&lt;/font&gt;" style="swimlane;whiteSpace=wrap;swimlaneFillColor=#BAC8D3;fontFamily=Courier New;html=1;opacity=25;rounded=1;shadow=1;strokeWidth=2;labelBackgroundColor=none;labelBorderColor=none;textShadow=1;fontStyle=0;align=center;fontSize=11;shadowOpacity=29;shadowColor=#FFF2CC;strokeColor=#ffffff;" parent="1" vertex="1">
          <mxGeometry x="711.91" y="226" width="225.96999999999997" height="918" as="geometry">
            <mxRectangle x="20" y="20" width="80" height="23" as="alternateBounds" />
          </mxGeometry>
        </mxCell>
        <mxCell id="194" value="Inventory Control" style="whiteSpace=wrap;shadow=1;fontFamily=Courier New;fontStyle=0;html=1;fontSize=11;spacing=6;verticalAlign=middle;rounded=1;strokeWidth=2;labelBackgroundColor=none;labelBorderColor=none;textShadow=1;align=center;shadowOpacity=29;shadowColor=#FFF2CC;strokeColor=#ffffff;" parent="193" vertex="1">
          <mxGeometry x="28.246249999999996" y="225.96923076923076" width="169.4775" height="84.73846153846154" as="geometry" />
        </mxCell>
        <mxCell id="195" value="Product Delivery" style="whiteSpace=wrap;shadow=1;fontFamily=Courier New;fontStyle=0;html=1;fontSize=11;spacing=6;verticalAlign=middle;rounded=1;strokeWidth=2;labelBackgroundColor=none;labelBorderColor=none;textShadow=1;align=center;shadowOpacity=29;shadowColor=#FFF2CC;strokeColor=#ffffff;" parent="193" vertex="1">
          <mxGeometry x="28.246249999999996" y="444.87692307692305" width="169.4775" height="84.73846153846154" as="geometry" />
        </mxCell>
        <mxCell id="196" value="Director" style="swimlane;whiteSpace=wrap;swimlaneFillColor=#BAC8D3;fontFamily=Courier New;html=1;opacity=50;rounded=1;shadow=1;strokeWidth=2;labelBackgroundColor=none;labelBorderColor=none;textShadow=1;fontStyle=0;align=center;fontSize=11;shadowOpacity=29;shadowColor=#FFF2CC;strokeColor=#ffffff;" parent="1" vertex="1">
          <mxGeometry x="1389.82" y="226" width="225.96999999999997" height="918" as="geometry">
            <mxRectangle x="20" y="20" width="80" height="23" as="alternateBounds" />
          </mxGeometry>
        </mxCell>
        <mxCell id="197" value="Outbounding Management" style="shape=document;whiteSpace=wrap;verticalAlign=middle;shadow=1;fontFamily=Courier New;fontStyle=0;html=1;fontSize=11;spacing=6;spacingBottom=22;rounded=1;strokeWidth=2;labelBackgroundColor=none;labelBorderColor=none;textShadow=1;align=center;shadowOpacity=29;shadowColor=#FFF2CC;strokeColor=#ffffff;" parent="196" vertex="1">
          <mxGeometry x="28.246249999999996" y="183.6" width="169.4775" height="112.98461538461538" as="geometry" />
        </mxCell>
        <mxCell id="198" value="Resources Allocation" style="whiteSpace=wrap;shadow=1;fontFamily=Courier New;fontStyle=0;html=1;fontSize=11;spacing=6;verticalAlign=middle;rounded=1;strokeWidth=2;labelBackgroundColor=none;labelBorderColor=none;textShadow=1;align=center;shadowOpacity=29;shadowColor=#FFF2CC;strokeColor=#ffffff;" parent="196" vertex="1">
          <mxGeometry x="28.246249999999996" y="360.1384615384615" width="169.4775" height="84.73846153846154" as="geometry" />
        </mxCell>
        <mxCell id="199" value="Long Term Strategy" style="whiteSpace=wrap;shadow=1;fontFamily=Courier New;fontStyle=0;html=1;fontSize=11;spacing=6;verticalAlign=middle;rounded=1;strokeWidth=2;labelBackgroundColor=none;labelBorderColor=none;textShadow=1;align=center;shadowOpacity=29;shadowColor=#FFF2CC;strokeColor=#ffffff;" parent="196" vertex="1">
          <mxGeometry x="28.246249999999996" y="564.9230769230769" width="169.4775" height="84.73846153846154" as="geometry" />
        </mxCell>
        <mxCell id="200" value="" style="edgeStyle=segmentEdgeStyle;strokeWidth=2;html=1;endArrow=block;endFill=1;rounded=1;shadow=1;labelBackgroundColor=none;labelBorderColor=none;textShadow=1;fontStyle=0;align=center;fontSize=11;fontFamily=Courier New;fontColor=default;shadowOpacity=29;shadowColor=#FFF2CC;strokeColor=#ffffff;" parent="196" source="198" target="199" edge="1">
          <mxGeometry width="100" height="100" relative="1" as="geometry">
            <mxPoint x="42.369375" y="805.0153846153846" as="sourcePoint" />
            <mxPoint x="183.60062499999998" y="663.7846153846154" as="targetPoint" />
          </mxGeometry>
        </mxCell>
        <mxCell id="201" value="" style="edgeStyle=segmentEdgeStyle;entryX=0.25;entryY=0;strokeWidth=2;html=1;endArrow=block;endFill=1;rounded=1;shadow=1;labelBackgroundColor=none;labelBorderColor=none;textShadow=1;fontStyle=0;align=center;fontSize=11;fontFamily=Courier New;fontColor=default;shadowOpacity=29;shadowColor=#FFF2CC;strokeColor=#ffffff;" parent="196" source="197" target="198" edge="1">
          <mxGeometry width="100" height="100" relative="1" as="geometry">
            <mxPoint x="-169.4775" y="367.2" as="sourcePoint" />
            <mxPoint x="-28.246249999999996" y="225.96923076923076" as="targetPoint" />
          </mxGeometry>
        </mxCell>
        <mxCell id="202" value="" style="edgeStyle=segmentEdgeStyle;strokeWidth=2;html=1;endArrow=block;endFill=1;rounded=1;shadow=1;labelBackgroundColor=none;labelBorderColor=none;textShadow=1;fontStyle=0;align=center;fontSize=11;fontFamily=Courier New;fontColor=default;shadowOpacity=29;shadowColor=#FFF2CC;strokeColor=#ffffff;" parent="1" source="171" target="184" edge="1">
          <mxGeometry x="266.32540624999996" y="478.0969230769231" width="141.23125" height="141.23076923076923" as="geometry">
            <mxPoint x="316.4625" y="451.96923076923076" as="sourcePoint" />
            <mxPoint x="457.69374999999997" y="310.73846153846154" as="targetPoint" />
          </mxGeometry>
        </mxCell>
        <mxCell id="203" value="" style="edgeStyle=segmentEdgeStyle;strokeWidth=2;html=1;endArrow=block;endFill=1;rounded=1;shadow=1;labelBackgroundColor=none;labelBorderColor=none;textShadow=1;fontStyle=0;align=center;fontSize=11;fontFamily=Courier New;fontColor=default;shadowOpacity=29;shadowColor=#FFF2CC;strokeColor=#ffffff;" parent="1" source="185" target="172" edge="1">
          <mxGeometry x="266.32540624999996" y="838.2353846153845" width="141.23125" height="141.23076923076923" as="geometry">
            <mxPoint x="387.078125" y="557.8923076923077" as="sourcePoint" />
            <mxPoint x="387.078125" y="614.3846153846154" as="targetPoint" />
            <Array as="points">
              <mxPoint x="330.58562499999994" y="797.9846153846154" />
            </Array>
          </mxGeometry>
        </mxCell>
        <mxCell id="204" value="" style="edgeStyle=segmentEdgeStyle;strokeWidth=2;html=1;endArrow=block;endFill=1;rounded=1;shadow=1;labelBackgroundColor=none;labelBorderColor=none;textShadow=1;fontStyle=0;align=center;fontSize=11;fontFamily=Courier New;fontColor=default;shadowOpacity=29;shadowColor=#FFF2CC;strokeColor=#ffffff;" parent="1" source="171" target="188" edge="1">
          <mxGeometry x="266.32540624999996" y="478.0969230769231" width="141.23125" height="141.23076923076923" as="geometry">
            <mxPoint x="245.84687499999998" y="367.2307692307692" as="sourcePoint" />
            <mxPoint x="387.078125" y="473.15384615384613" as="targetPoint" />
          </mxGeometry>
        </mxCell>
        <mxCell id="205" value="" style="edgeStyle=segmentEdgeStyle;strokeWidth=2;html=1;endArrow=block;endFill=1;rounded=1;shadow=1;labelBackgroundColor=none;labelBorderColor=none;textShadow=1;fontStyle=0;align=center;fontSize=11;fontFamily=Courier New;fontColor=default;shadowOpacity=29;shadowColor=#FFF2CC;strokeColor=#ffffff;" parent="1" source="185" target="190" edge="1">
          <mxGeometry x="365.18728124999996" y="838.2353846153845" width="141.23125" height="141.23076923076923" as="geometry">
            <mxPoint x="542.4324999999999" y="1256.9846153846154" as="sourcePoint" />
            <mxPoint x="683.6637499999999" y="1115.753846153846" as="targetPoint" />
            <Array as="points">
              <mxPoint x="330.58562499999994" y="847.4153846153846" />
            </Array>
          </mxGeometry>
        </mxCell>
        <mxCell id="206" value="" style="edgeStyle=elbowEdgeStyle;elbow=vertical;strokeWidth=2;html=1;endArrow=block;endFill=1;rounded=1;shadow=1;labelBackgroundColor=none;labelBorderColor=none;textShadow=1;fontStyle=0;align=center;fontSize=11;fontFamily=Courier New;fontColor=default;shadowOpacity=29;shadowColor=#FFF2CC;strokeColor=#ffffff;" parent="1" source="191" target="178" edge="1">
          <mxGeometry x="718.26540625" y="1106.5738461538463" width="141.23125" height="141.23076923076923" as="geometry">
            <mxPoint x="768.4024999999999" y="974.5230769230769" as="sourcePoint" />
            <mxPoint x="909.63375" y="833.2923076923076" as="targetPoint" />
          </mxGeometry>
        </mxCell>
        <mxCell id="207" value="" style="edgeStyle=segmentEdgeStyle;strokeWidth=2;html=1;endArrow=block;endFill=1;rounded=1;shadow=1;labelBackgroundColor=none;labelBorderColor=none;textShadow=1;fontStyle=0;align=center;fontSize=11;fontFamily=Courier New;fontColor=default;shadowOpacity=29;shadowColor=#FFF2CC;strokeColor=#ffffff;" parent="1" source="184" target="189" edge="1">
          <mxGeometry x="492.2954062499999" y="626.3892307692308" width="141.23125" height="141.23076923076923" as="geometry">
            <mxPoint x="641.294375" y="522.5846153846153" as="sourcePoint" />
            <mxPoint x="782.525625" y="381.3538461538461" as="targetPoint" />
            <Array as="points" />
          </mxGeometry>
        </mxCell>
        <mxCell id="208" value="" style="edgeStyle=segmentEdgeStyle;strokeWidth=2;html=1;endArrow=block;endFill=1;rounded=1;shadow=1;labelBackgroundColor=none;labelBorderColor=none;textShadow=1;fontStyle=0;align=center;fontSize=11;fontFamily=Courier New;fontColor=default;shadowOpacity=29;shadowColor=#FFF2CC;strokeColor=#ffffff;" parent="1" source="188" target="194" edge="1">
          <mxGeometry x="718.26540625" y="478.0969230769231" width="141.23125" height="141.23076923076923" as="geometry">
            <mxPoint x="627.1712499999999" y="451.96923076923076" as="sourcePoint" />
            <mxPoint x="768.4024999999999" y="310.73846153846154" as="targetPoint" />
          </mxGeometry>
        </mxCell>
        <mxCell id="209" value="" style="edgeStyle=none;strokeWidth=2;html=1;endArrow=block;endFill=1;rounded=1;shadow=1;labelBackgroundColor=none;labelBorderColor=none;textShadow=1;fontStyle=0;align=center;fontSize=11;fontFamily=Courier New;fontColor=default;shadowOpacity=29;shadowColor=#FFF2CC;strokeColor=#ffffff;" parent="1" source="194" target="181" edge="1">
          <mxGeometry x="944.2354062499999" y="619.3276923076922" width="141.23125" height="141.23076923076923" as="geometry">
            <mxPoint x="966.1262499999999" y="748.5538461538462" as="sourcePoint" />
            <mxPoint x="1107.3574999999998" y="607.323076923077" as="targetPoint" />
          </mxGeometry>
        </mxCell>
        <mxCell id="210" value="" style="edgeStyle=segmentEdgeStyle;strokeWidth=2;html=1;endArrow=block;endFill=1;rounded=1;shadow=1;labelBackgroundColor=none;labelBorderColor=none;textShadow=1;fontStyle=0;align=center;fontSize=11;fontFamily=Courier New;fontColor=default;shadowOpacity=29;shadowColor=#FFF2CC;strokeColor=#ffffff;" parent="1" source="189" target="195" edge="1">
          <mxGeometry x="605.2804062499999" y="781.743076923077" width="141.23125" height="141.23076923076923" as="geometry">
            <mxPoint x="740.15625" y="790.9230769230769" as="sourcePoint" />
            <mxPoint x="881.3874999999999" y="649.6923076923076" as="targetPoint" />
            <Array as="points">
              <mxPoint x="570.6787499999999" y="720.3076923076923" />
            </Array>
          </mxGeometry>
        </mxCell>
        <mxCell id="211" value="" style="edgeStyle=segmentEdgeStyle;strokeWidth=2;html=1;endArrow=block;endFill=1;rounded=1;shadow=1;labelBackgroundColor=none;labelBorderColor=none;textShadow=1;fontStyle=0;align=center;fontSize=11;fontFamily=Courier New;fontColor=default;shadowOpacity=29;shadowColor=#FFF2CC;strokeColor=#ffffff;" parent="1" source="195" target="181" edge="1">
          <mxGeometry x="944.2354062499999" y="661.6969230769231" width="141.23125" height="141.23076923076923" as="geometry">
            <mxPoint x="909.63375" y="720.3076923076923" as="sourcePoint" />
            <mxPoint x="1050.8649999999998" y="579.0769230769231" as="targetPoint" />
          </mxGeometry>
        </mxCell>
        <mxCell id="212" value="" style="edgeStyle=segmentEdgeStyle;strokeWidth=2;html=1;endArrow=block;endFill=1;rounded=1;shadow=1;labelBackgroundColor=none;labelBorderColor=none;textShadow=1;fontStyle=0;align=center;fontSize=11;fontFamily=Courier New;fontColor=default;shadowOpacity=29;shadowColor=#FFF2CC;strokeColor=#ffffff;" parent="1" source="195" target="182" edge="1">
          <mxGeometry x="944.2354062499999" y="838.2353846153845" width="141.23125" height="141.23076923076923" as="geometry">
            <mxPoint x="726.0331249999999" y="932.1538461538462" as="sourcePoint" />
            <mxPoint x="867.264375" y="790.9230769230769" as="targetPoint" />
          </mxGeometry>
        </mxCell>
        <mxCell id="213" value="" style="edgeStyle=segmentEdgeStyle;strokeWidth=2;html=1;endArrow=block;endFill=1;rounded=1;shadow=1;labelBackgroundColor=none;labelBorderColor=none;textShadow=1;fontStyle=0;align=center;fontSize=11;fontFamily=Courier New;fontColor=default;shadowOpacity=29;shadowColor=#FFF2CC;strokeColor=#ffffff;" parent="1" source="181" target="177" edge="1">
          <mxGeometry x="1085.46665625" y="478.0969230769231" width="141.23125" height="141.23076923076923" as="geometry">
            <mxPoint x="1220.3424999999997" y="635.5692307692307" as="sourcePoint" />
            <mxPoint x="1361.57375" y="494.33846153846156" as="targetPoint" />
            <Array as="points">
              <mxPoint x="1050.8649999999998" y="353.10769230769233" />
            </Array>
          </mxGeometry>
        </mxCell>
        <mxCell id="214" value="" style="edgeStyle=segmentEdgeStyle;strokeWidth=2;html=1;endArrow=block;endFill=1;rounded=1;shadow=1;labelBackgroundColor=none;labelBorderColor=none;textShadow=1;fontStyle=0;align=center;fontSize=11;fontFamily=Courier New;fontColor=default;shadowOpacity=29;shadowColor=#FFF2CC;strokeColor=#ffffff;" parent="1" source="181" target="179" edge="1">
          <mxGeometry x="1170.20540625" y="619.3276923076922" width="141.23125" height="141.23076923076923" as="geometry">
            <mxPoint x="1206.219375" y="649.6923076923076" as="sourcePoint" />
            <mxPoint x="1347.4506249999997" y="508.46153846153845" as="targetPoint" />
          </mxGeometry>
        </mxCell>
        <mxCell id="215" value="" style="edgeStyle=segmentEdgeStyle;strokeWidth=2;html=1;endArrow=block;endFill=1;rounded=1;shadow=1;labelBackgroundColor=none;labelBorderColor=none;textShadow=1;fontStyle=0;align=center;fontSize=11;fontFamily=Courier New;fontColor=default;shadowOpacity=29;shadowColor=#FFF2CC;strokeColor=#ffffff;" parent="1" source="182" target="178" edge="1">
          <mxGeometry x="1170.20540625" y="986.5276923076923" width="141.23125" height="141.23076923076923" as="geometry">
            <mxPoint x="1248.58875" y="918.0307692307691" as="sourcePoint" />
            <mxPoint x="1389.82" y="776.8" as="targetPoint" />
          </mxGeometry>
        </mxCell>
        <mxCell id="216" value="" style="edgeStyle=segmentEdgeStyle;strokeWidth=2;html=1;endArrow=block;endFill=1;rounded=1;shadow=1;labelBackgroundColor=none;labelBorderColor=none;textShadow=1;fontStyle=0;align=center;fontSize=11;fontFamily=Courier New;fontColor=default;shadowOpacity=29;shadowColor=#FFF2CC;strokeColor=#ffffff;" parent="1" source="179" target="199" edge="1">
          <mxGeometry x="1396.17540625" y="824.1123076923077" width="141.23125" height="141.23076923076923" as="geometry">
            <mxPoint x="1545.1743749999998" y="805.0461538461539" as="sourcePoint" />
            <mxPoint x="1686.4056249999996" y="663.8153846153846" as="targetPoint" />
          </mxGeometry>
        </mxCell>
        <mxCell id="217" value="" style="edgeStyle=segmentEdgeStyle;strokeWidth=2;html=1;endArrow=block;endFill=1;rounded=1;shadow=1;labelBackgroundColor=none;labelBorderColor=none;textShadow=1;fontStyle=0;align=center;fontSize=11;fontFamily=Courier New;fontColor=default;shadowOpacity=29;shadowColor=#FFF2CC;strokeColor=#ffffff;" parent="1" source="177" target="197" edge="1">
          <mxGeometry x="1396.17540625" y="478.0969230769231" width="141.23125" height="141.23076923076923" as="geometry">
            <mxPoint x="1206.219375" y="593.2" as="sourcePoint" />
            <mxPoint x="1347.4506249999997" y="451.96923076923076" as="targetPoint" />
          </mxGeometry>
        </mxCell>
      </root>
    </mxGraphModel>
  </diagram>
</mxfile>
